<svg width="96" height="96" viewBox="0 0 96 96" fill="none" xmlns="http://www.w3.org/2000/svg">
<path fill-rule="evenodd" clip-rule="evenodd" d="M44.1479 2.26357C43.7258 3.50863 42.4685 7.18024 41.3538 10.4229C40.2391 13.6656 38.7784 17.9295 38.1076 19.8983C37.4368 21.8671 36.3638 24.994 35.7229 26.8469C35.0823 28.6999 34.3997 30.6897 34.2064 31.2688C33.4468 33.5425 33.5445 33.4321 31.3862 34.4605C29.432 35.3919 26.2113 36.9374 21.3588 39.2723C20.0847 39.8855 17.5259 41.1133 15.6726 42.0008C13.8193 42.8882 11.6395 43.9366 10.8287 44.3305L9.35449 45.0464L27.203 45.0536L45.0516 45.0608V22.5304C45.0516 10.1387 45.0208 0 44.9835 0C44.9461 0 44.5699 1.0185 44.1479 2.26357ZM50.9556 27.2154L50.9484 45.0608H73.518C85.9311 45.0608 96.0481 45.0226 95.9998 44.9761C95.9514 44.9296 93.9218 44.2113 91.4894 43.3798C89.0569 42.5483 85.4082 41.3005 83.3812 40.6067C81.3541 39.9129 78.0845 38.7948 76.1154 38.122C74.1463 37.4491 71.0188 36.3746 69.1655 35.7338C67.3122 35.0933 65.322 34.4108 64.7429 34.2175C62.4688 33.458 62.5792 33.5557 61.5506 31.3979C60.6191 29.444 59.0733 26.2239 56.7379 21.3723C56.1246 20.0984 54.8966 17.54 54.0089 15.687C53.1214 13.8341 52.0728 11.6547 51.6788 10.8441L50.9627 9.37011L50.9556 27.2154ZM0.000171716 51.0412C0.0486102 51.0877 2.07818 51.806 4.51064 52.6375C6.9431 53.469 10.5444 54.7008 12.5135 55.3748C15.8693 56.5235 17.5684 57.1065 26.6239 60.217C28.593 60.8935 30.678 61.6054 31.2571 61.7991C33.5325 62.5603 33.4209 62.4618 34.4494 64.6194C35.3809 66.5733 36.9267 69.7934 39.2621 74.645C39.8754 75.9189 41.1034 78.4773 41.9911 80.3303C42.8786 82.1832 43.9272 84.3626 44.3212 85.1732L45.0372 86.6472L45.0444 68.8019L45.0516 50.9566H22.482C10.0689 50.9566 -0.0480562 50.9947 0.000171716 51.0412ZM50.9484 73.5221C50.9484 85.933 50.9865 96.048 51.0331 95.9998C51.0796 95.9514 51.798 93.9222 52.6297 91.4902C53.4613 89.0582 54.6934 85.4575 55.3675 83.4887C56.5163 80.1336 57.0995 78.4348 60.2105 69.3809C60.8872 67.4122 61.5992 65.3276 61.793 64.7485C62.5543 62.4736 62.4557 62.5852 64.6138 61.5568C66.568 60.6255 69.7887 59.0799 74.6412 56.745C75.9153 56.1318 78.4741 54.904 80.3274 54.0165C82.1807 53.1292 84.3605 52.0808 85.1713 51.6868L86.6455 50.9709L68.797 50.9637L50.9484 50.9566V73.5221Z" fill="black"/>
</svg>
